# xmcd
#
# Track frame offsets:
#	150
#	12410
#	26660
#	42562
#	57785
#	72482
#	91915
#	106680
#	120857
#	132785
#	150940
#	180632
#	193907
#	210787
#	225415
#
# Disc length: 3288 seconds
#
# Revision: 1
# Processed by: cddbd v1.5.1PL0 Copyright (c) Steve Scherf et al.
# Submitted via: CDex 1.50Beta5
#
DISCID=b50cd60f
DTITLE=サラ・ボーン - キミと歩くマンハッタン〜ニューヨーク・ジャズ・クルージング
DYEAR=1990
DGENRE=Jazz
TTITLE0=サラ・ボーン/A列車で行こう
TTITLE1=フランク・ドローン/ミスティ
TTITLE2=クインシー・ジョーンズ/テイク・ファイブ
TTITLE3=サラ・ボーン/ニューヨークの秋
TTITLE4=ヘレン・メリル/ス・ワンダフル
TTITLE5=ダイナ・ワシントン/マンハッタン
TTITLE6=クリフォード・ブラウン/煙が目にしみる
TTITLE7=ビック・ダモン/今宵の君は
TTITLE8=リタ・ライス/サテン・ドール
TTITLE9=サラ・ボーン/バードランドの子守歌
TTITLE10=ジェリー・マリガン/ブロードウェイ
TTITLE11=金子晴美/ブロードウェイの子守歌
TTITLE12=ダイナ・ワシントン/オール・オブ・ミー
TTITLE13=ジャッキー・パリス/あなたと夜と音楽と
TTITLE14=ブロッサム・ディアリー/スプリング・イン・マンハッタン
EXTD=
EXTT0=
EXTT1=
EXTT2=
EXTT3=
EXTT4=
EXTT5=
EXTT6=
EXTT7=
EXTT8=
EXTT9=
EXTT10=
EXTT11=
EXTT12=
EXTT13=
EXTT14=
PLAYORDER=
